<svg width="41" height="13" viewBox="0 0 41 13" fill="none" xmlns="http://www.w3.org/2000/svg">
<path d="M7.208 0.799999C7.41067 0.917333 7.56 1.08267 7.656 1.296C7.76267 1.49867 7.816 1.72267 7.816 1.968C7.816 2.18133 7.77333 2.39467 7.688 2.608C7.60267 2.82133 7.49067 2.99733 7.352 3.136C6.136 3.15733 4.98933 3.21067 3.912 3.296C3.85867 3.52 3.74667 4.016 3.576 4.784C3.55467 4.88 3.48533 5.216 3.368 5.792C4.50933 5.696 5.41067 5.568 6.072 5.408C6.28533 5.536 6.44533 5.70667 6.552 5.92C6.66933 6.12267 6.728 6.34667 6.728 6.592C6.728 6.816 6.68 7.02933 6.584 7.232C6.49867 7.424 6.376 7.57867 6.216 7.696C6.01333 7.71733 5.81067 7.73333 5.608 7.744C5.416 7.75467 5.22933 7.76533 5.048 7.776L3.048 7.92C2.96267 8.464 2.87733 9.10933 2.792 9.856C2.696 10.656 2.61067 11.216 2.536 11.536C2.46133 11.8453 2.33867 12 2.168 12C1.90133 12 1.59733 11.9093 1.256 11.728C0.925333 11.536 0.637333 11.3173 0.392 11.072C0.157333 10.816 0.0400001 10.608 0.0400001 10.448C0.0400001 10.288 0.0933334 9.936 0.2 9.392C0.317333 8.848 0.445333 8.26133 0.584 7.632C1.064 5.56267 1.34667 4.144 1.432 3.376L0.76 3.424C0.557333 3.31733 0.392 3.16267 0.264 2.96C0.146667 2.74667 0.0880001 2.51733 0.0880001 2.272C0.0880001 1.84533 0.253333 1.46667 0.584 1.136C2.04533 1.11467 3.31467 1.08267 4.392 1.04C5.48 0.997333 6.41867 0.917333 7.208 0.799999ZM17.0171 8.016C17.0278 8.18667 17.0651 8.61867 17.1291 9.312C17.2038 9.99467 17.2411 10.5653 17.2411 11.024C17.2411 11.6213 17.1718 11.9413 17.0331 11.984C16.9905 11.9947 16.9211 12 16.8251 12C16.5905 12 16.2971 11.9467 15.9451 11.84C15.6038 11.7227 15.2945 11.5787 15.0171 11.408C14.7505 11.2373 14.5958 11.072 14.5531 10.912C14.5105 10.752 14.4891 10.08 14.4891 8.896C13.3371 9.03467 12.5798 9.12 12.2171 9.152C11.9291 9.99467 11.5985 10.9173 11.2251 11.92C10.9371 11.984 10.6705 12.016 10.4251 12.016C9.99846 12.016 9.63579 11.9147 9.33712 11.712C9.04912 11.4987 8.85712 11.1787 8.76112 10.752L9.08112 10.032C10.2545 7.41867 11.2678 5.22667 12.1211 3.456C12.9851 1.68533 13.5451 0.799999 13.8011 0.799999C14.0038 0.799999 14.2971 0.874666 14.6811 1.024C15.0758 1.17333 15.4278 1.35467 15.7371 1.568C16.0571 1.78133 16.2385 1.97333 16.2811 2.144C16.3558 2.44267 16.4571 3.06667 16.5851 4.016C16.7131 4.96533 16.8145 5.88267 16.8891 6.768L17.0171 8.016ZM14.4411 3.296C13.9718 4.40533 13.5078 5.59467 13.0491 6.864C13.5398 6.832 14.0251 6.784 14.5051 6.72C14.5051 5.248 14.4838 4.10667 14.4411 3.296ZM27.4597 0.976C28.0571 0.954666 28.5264 1.07733 28.8678 1.344C29.2198 1.6 29.3958 1.95733 29.3958 2.416C29.3958 2.59733 29.3744 2.768 29.3317 2.928C27.9237 4.54933 26.3451 5.84 24.5957 6.8C25.1931 7.376 25.8704 7.90933 26.6277 8.4C27.3957 8.89067 28.1317 9.27467 28.8357 9.552C28.8677 9.72267 28.8837 9.89333 28.8837 10.064C28.8837 10.5653 28.7344 10.9973 28.4358 11.36C28.1477 11.712 27.7317 11.9253 27.1877 12C26.4091 11.5413 25.7424 11.0133 25.1877 10.416C24.6331 9.808 24.0677 9.05067 23.4917 8.144C23.3957 9.50933 23.2997 10.496 23.2037 11.104C23.1077 11.7013 22.9531 12 22.7397 12C22.4944 12 22.2011 11.9147 21.8597 11.744C21.5291 11.5627 21.2357 11.3493 20.9797 11.104C20.7344 10.8587 20.6117 10.656 20.6117 10.496C20.6011 10.3253 20.6491 9.968 20.7557 9.424C20.8731 8.86933 20.9477 8.512 20.9797 8.352C21.0224 8.13867 21.1024 7.74933 21.2197 7.184C21.3371 6.608 21.4331 6.07467 21.5077 5.584L21.6357 4.832C21.8384 3.63733 22.0251 2.66667 22.1957 1.92C22.3771 1.17333 22.5584 0.799999 22.7397 0.799999C22.9424 0.799999 23.2144 0.890666 23.5557 1.072C23.9077 1.25333 24.2117 1.46667 24.4677 1.712C24.7344 1.95733 24.8677 2.17067 24.8677 2.352C24.8677 2.46933 24.7717 2.83733 24.5797 3.456C24.3877 4.07467 24.2064 4.608 24.0357 5.056C24.6757 4.512 25.2411 3.93067 25.7318 3.312C26.2331 2.69333 26.8091 1.91467 27.4597 0.976ZM39.8499 0.799999C40.0525 0.917333 40.2019 1.08267 40.2979 1.296C40.4045 1.49867 40.4579 1.72267 40.4579 1.968C40.4579 2.18133 40.4152 2.39467 40.3299 2.608C40.2445 2.82133 40.1325 2.99733 39.9939 3.136C38.6179 3.15733 37.4712 3.21067 36.5539 3.296C36.3725 3.94667 36.2019 4.672 36.0419 5.472C37.1085 5.38667 38.0099 5.25867 38.7459 5.088C38.9592 5.216 39.1192 5.38667 39.2259 5.6C39.3432 5.80267 39.4019 6.02667 39.4019 6.272C39.4019 6.496 39.3539 6.70933 39.2579 6.912C39.1725 7.104 39.0499 7.25867 38.8899 7.376C38.6872 7.39733 38.4899 7.41333 38.2979 7.424C38.1059 7.43467 37.9192 7.44533 37.7379 7.456L35.6739 7.6L35.3859 9.04L35.2259 9.808C35.8765 9.744 36.4632 9.65867 36.9859 9.552C37.5192 9.43467 38.0792 9.27467 38.6659 9.072C38.9645 9.21067 39.1939 9.408 39.3539 9.664C39.5245 9.90933 39.6099 10.1813 39.6099 10.48C39.6099 10.9067 39.4445 11.2853 39.1139 11.616C38.4525 11.744 37.7112 11.84 36.8899 11.904C36.0685 11.968 35.3059 12 34.6019 12C34.4099 12 34.1592 11.904 33.8499 11.712C33.5405 11.52 33.2632 11.296 33.0179 11.04C32.7832 10.784 32.6659 10.5653 32.6659 10.384C32.6659 10.224 32.7885 9.60533 33.0339 8.528C33.2152 7.73867 33.3912 6.91733 33.5619 6.064C33.6792 5.47733 33.7379 5.184 33.7379 5.184C33.9085 4.352 34.0205 3.74933 34.0739 3.376L33.4019 3.424C33.1992 3.31733 33.0339 3.16267 32.9059 2.96C32.7885 2.74667 32.7299 2.51733 32.7299 2.272C32.7299 1.84533 32.8952 1.46667 33.2259 1.136C34.6872 1.11467 35.9565 1.08267 37.0339 1.04C38.1219 0.997333 39.0605 0.917333 39.8499 0.799999Z" fill="black"/>
</svg>
