<svg width="24" height="24" viewBox="0 0 24 24" fill="none" xmlns="http://www.w3.org/2000/svg">
<rect width="24" height="24" rx="6" fill="#0077FF"/>
<path d="M7.85 17C7.67267 17 7.416 16.9253 7.08 16.776C6.744 16.6173 6.43133 16.4353 6.142 16.23C5.862 16.0153 5.70333 15.8333 5.666 15.684C5.61933 15.4787 5.53533 14.62 5.414 13.108C5.37667 12.5013 5.344 12.058 5.316 11.778C5.29733 11.5353 5.27867 11.3533 5.26 11.232C5.13867 9.98133 5.078 9.076 5.078 8.516C5.078 7.89067 5.148 7.55933 5.288 7.522C5.32533 7.51267 5.386 7.508 5.47 7.508C5.67533 7.508 5.92733 7.55933 6.226 7.662C6.534 7.75533 6.80467 7.87667 7.038 8.026C7.27133 8.17533 7.40667 8.32 7.444 8.46C7.46267 8.516 7.472 8.726 7.472 9.09C7.472 9.60333 7.458 10.2333 7.43 10.98C7.39267 12.1933 7.374 13.1313 7.374 13.794V14.298C8.16733 12.562 9.054 10.2333 10.034 7.312C10.314 7.21867 10.5987 7.172 10.888 7.172C11.2707 7.172 11.5927 7.27467 11.854 7.48C12.1247 7.68533 12.302 7.998 12.386 8.418C9.76333 14.1393 8.25133 17 7.85 17ZM17.3337 7.354C17.8564 7.33533 18.267 7.44267 18.5657 7.676C18.8737 7.9 19.0277 8.21267 19.0277 8.614C19.0277 8.77267 19.009 8.922 18.9717 9.062C17.7397 10.4807 16.3584 11.61 14.8277 12.45C15.3504 12.954 15.943 13.4207 16.6057 13.85C17.2777 14.2793 17.9217 14.6153 18.5377 14.858C18.5657 15.0073 18.5797 15.1567 18.5797 15.306C18.5797 15.7447 18.449 16.1227 18.1877 16.44C17.9357 16.748 17.5717 16.9347 17.0957 17C16.4144 16.5987 15.831 16.1367 15.3457 15.614C14.8604 15.082 14.3657 14.4193 13.8617 13.626C13.7777 14.8207 13.6937 15.684 13.6097 16.216C13.5257 16.7387 13.3904 17 13.2037 17C12.989 17 12.7324 16.9253 12.4337 16.776C12.1444 16.6173 11.8877 16.4307 11.6637 16.216C11.449 16.0013 11.3417 15.824 11.3417 15.684C11.3324 15.5347 11.3744 15.222 11.4677 14.746C11.5704 14.2607 11.6357 13.948 11.6637 13.808C11.701 13.6213 11.771 13.2807 11.8737 12.786C11.9764 12.282 12.0604 11.8153 12.1257 11.386L12.2377 10.728C12.415 9.68267 12.5784 8.83333 12.7277 8.18C12.8864 7.52667 13.045 7.2 13.2037 7.2C13.381 7.2 13.619 7.27933 13.9177 7.438C14.2257 7.59667 14.4917 7.78333 14.7157 7.998C14.949 8.21267 15.0657 8.39933 15.0657 8.558C15.0657 8.66067 14.9817 8.98267 14.8137 9.524C14.6457 10.0653 14.487 10.532 14.3377 10.924C14.8977 10.448 15.3924 9.93933 15.8217 9.398C16.2604 8.85667 16.7644 8.17533 17.3337 7.354Z" fill="white"/>
</svg>
