<svg width="71" height="24" viewBox="0 0 71 24" fill="none" xmlns="http://www.w3.org/2000/svg">
<path d="M37.208 6.8C37.4107 6.91733 37.56 7.08267 37.656 7.296C37.7627 7.49867 37.816 7.72267 37.816 7.968C37.816 8.18133 37.7733 8.39467 37.688 8.608C37.6027 8.82133 37.4907 8.99733 37.352 9.136C36.136 9.15733 34.9893 9.21067 33.912 9.296C33.8587 9.52 33.7467 10.016 33.576 10.784C33.5547 10.88 33.4853 11.216 33.368 11.792C34.5093 11.696 35.4107 11.568 36.072 11.408C36.2853 11.536 36.4453 11.7067 36.552 11.92C36.6693 12.1227 36.728 12.3467 36.728 12.592C36.728 12.816 36.68 13.0293 36.584 13.232C36.4987 13.424 36.376 13.5787 36.216 13.696C36.0133 13.7173 35.8107 13.7333 35.608 13.744C35.416 13.7547 35.2293 13.7653 35.048 13.776L33.048 13.92C32.9627 14.464 32.8773 15.1093 32.792 15.856C32.696 16.656 32.6107 17.216 32.536 17.536C32.4613 17.8453 32.3387 18 32.168 18C31.9013 18 31.5973 17.9093 31.256 17.728C30.9253 17.536 30.6373 17.3173 30.392 17.072C30.1573 16.816 30.04 16.608 30.04 16.448C30.04 16.288 30.0933 15.936 30.2 15.392C30.3173 14.848 30.4453 14.2613 30.584 13.632C31.064 11.5627 31.3467 10.144 31.432 9.376L30.76 9.424C30.5573 9.31733 30.392 9.16267 30.264 8.96C30.1467 8.74667 30.088 8.51733 30.088 8.272C30.088 7.84533 30.2533 7.46667 30.584 7.136C32.0453 7.11467 33.3147 7.08267 34.392 7.04C35.48 6.99733 36.4187 6.91733 37.208 6.8ZM47.0171 14.016C47.0278 14.1867 47.0651 14.6187 47.1291 15.312C47.2038 15.9947 47.2411 16.5653 47.2411 17.024C47.2411 17.6213 47.1718 17.9413 47.0331 17.984C46.9905 17.9947 46.9211 18 46.8251 18C46.5905 18 46.2971 17.9467 45.9451 17.84C45.6038 17.7227 45.2945 17.5787 45.0171 17.408C44.7505 17.2373 44.5958 17.072 44.5531 16.912C44.5105 16.752 44.4891 16.08 44.4891 14.896C43.3371 15.0347 42.5798 15.12 42.2171 15.152C41.9291 15.9947 41.5985 16.9173 41.2251 17.92C40.9371 17.984 40.6705 18.016 40.4251 18.016C39.9985 18.016 39.6358 17.9147 39.3371 17.712C39.0491 17.4987 38.8571 17.1787 38.7611 16.752L39.0811 16.032C40.2545 13.4187 41.2678 11.2267 42.1211 9.456C42.9851 7.68533 43.5451 6.8 43.8011 6.8C44.0038 6.8 44.2971 6.87467 44.6811 7.024C45.0758 7.17333 45.4278 7.35467 45.7371 7.568C46.0571 7.78133 46.2385 7.97333 46.2811 8.144C46.3558 8.44267 46.4571 9.06667 46.5851 10.016C46.7131 10.9653 46.8145 11.8827 46.8891 12.768L47.0171 14.016ZM44.4411 9.296C43.9718 10.4053 43.5078 11.5947 43.0491 12.864C43.5398 12.832 44.0251 12.784 44.5051 12.72C44.5051 11.248 44.4838 10.1067 44.4411 9.296ZM57.4597 6.976C58.0571 6.95467 58.5264 7.07733 58.8678 7.344C59.2198 7.6 59.3958 7.95733 59.3958 8.416C59.3958 8.59733 59.3744 8.768 59.3317 8.928C57.9237 10.5493 56.3451 11.84 54.5957 12.8C55.1931 13.376 55.8704 13.9093 56.6277 14.4C57.3957 14.8907 58.1317 15.2747 58.8357 15.552C58.8677 15.7227 58.8837 15.8933 58.8837 16.064C58.8837 16.5653 58.7344 16.9973 58.4358 17.36C58.1477 17.712 57.7317 17.9253 57.1877 18C56.4091 17.5413 55.7424 17.0133 55.1877 16.416C54.6331 15.808 54.0677 15.0507 53.4917 14.144C53.3957 15.5093 53.2997 16.496 53.2037 17.104C53.1077 17.7013 52.9531 18 52.7397 18C52.4944 18 52.2011 17.9147 51.8597 17.744C51.5291 17.5627 51.2357 17.3493 50.9797 17.104C50.7344 16.8587 50.6117 16.656 50.6117 16.496C50.6011 16.3253 50.6491 15.968 50.7557 15.424C50.8731 14.8693 50.9477 14.512 50.9797 14.352C51.0224 14.1387 51.1024 13.7493 51.2197 13.184C51.3371 12.608 51.4331 12.0747 51.5077 11.584L51.6357 10.832C51.8384 9.63733 52.0251 8.66667 52.1957 7.92C52.3771 7.17333 52.5584 6.8 52.7397 6.8C52.9424 6.8 53.2144 6.89067 53.5557 7.072C53.9077 7.25333 54.2117 7.46667 54.4677 7.712C54.7344 7.95733 54.8677 8.17067 54.8677 8.352C54.8677 8.46933 54.7717 8.83733 54.5797 9.456C54.3877 10.0747 54.2064 10.608 54.0357 11.056C54.6757 10.512 55.2411 9.93067 55.7318 9.312C56.2331 8.69333 56.8091 7.91467 57.4597 6.976ZM69.8499 6.8C70.0525 6.91733 70.2019 7.08267 70.2979 7.296C70.4045 7.49867 70.4579 7.72267 70.4579 7.968C70.4579 8.18133 70.4152 8.39467 70.3299 8.608C70.2445 8.82133 70.1325 8.99733 69.9939 9.136C68.6179 9.15733 67.4712 9.21067 66.5539 9.296C66.3725 9.94667 66.2019 10.672 66.0419 11.472C67.1085 11.3867 68.0099 11.2587 68.7459 11.088C68.9592 11.216 69.1192 11.3867 69.2259 11.6C69.3432 11.8027 69.4019 12.0267 69.4019 12.272C69.4019 12.496 69.3539 12.7093 69.2579 12.912C69.1725 13.104 69.0499 13.2587 68.8899 13.376C68.6872 13.3973 68.4899 13.4133 68.2979 13.424C68.1059 13.4347 67.9192 13.4453 67.7379 13.456L65.6739 13.6L65.3859 15.04L65.2259 15.808C65.8765 15.744 66.4632 15.6587 66.9859 15.552C67.5192 15.4347 68.0792 15.2747 68.6659 15.072C68.9645 15.2107 69.1939 15.408 69.3539 15.664C69.5245 15.9093 69.6099 16.1813 69.6099 16.48C69.6099 16.9067 69.4445 17.2853 69.1139 17.616C68.4525 17.744 67.7112 17.84 66.8899 17.904C66.0685 17.968 65.3059 18 64.6019 18C64.4099 18 64.1592 17.904 63.8499 17.712C63.5405 17.52 63.2632 17.296 63.0179 17.04C62.7832 16.784 62.6659 16.5653 62.6659 16.384C62.6659 16.224 62.7885 15.6053 63.0339 14.528C63.2152 13.7387 63.3912 12.9173 63.5619 12.064C63.6792 11.4773 63.7379 11.184 63.7379 11.184C63.9085 10.352 64.0205 9.74933 64.0739 9.376L63.4019 9.424C63.1992 9.31733 63.0339 9.16267 62.9059 8.96C62.7885 8.74667 62.7299 8.51733 62.7299 8.272C62.7299 7.84533 62.8952 7.46667 63.2259 7.136C64.6872 7.11467 65.9565 7.08267 67.0339 7.04C68.1219 6.99733 69.0605 6.91733 69.8499 6.8Z" fill="white"/>
<rect width="24" height="24" rx="6" fill="#0077FF"/>
<path d="M7.85 17C7.67267 17 7.416 16.9253 7.08 16.776C6.744 16.6173 6.43133 16.4353 6.142 16.23C5.862 16.0153 5.70333 15.8333 5.666 15.684C5.61933 15.4787 5.53533 14.62 5.414 13.108C5.37667 12.5013 5.344 12.058 5.316 11.778C5.29733 11.5353 5.27867 11.3533 5.26 11.232C5.13867 9.98133 5.078 9.076 5.078 8.516C5.078 7.89067 5.148 7.55933 5.288 7.522C5.32533 7.51267 5.386 7.508 5.47 7.508C5.67533 7.508 5.92733 7.55933 6.226 7.662C6.534 7.75533 6.80467 7.87667 7.038 8.026C7.27133 8.17533 7.40667 8.32 7.444 8.46C7.46267 8.516 7.472 8.726 7.472 9.09C7.472 9.60333 7.458 10.2333 7.43 10.98C7.39267 12.1933 7.374 13.1313 7.374 13.794V14.298C8.16733 12.562 9.054 10.2333 10.034 7.312C10.314 7.21867 10.5987 7.172 10.888 7.172C11.2707 7.172 11.5927 7.27467 11.854 7.48C12.1247 7.68533 12.302 7.998 12.386 8.418C9.76333 14.1393 8.25133 17 7.85 17ZM17.3337 7.354C17.8564 7.33533 18.267 7.44267 18.5657 7.676C18.8737 7.9 19.0277 8.21267 19.0277 8.614C19.0277 8.77267 19.009 8.922 18.9717 9.062C17.7397 10.4807 16.3584 11.61 14.8277 12.45C15.3504 12.954 15.943 13.4207 16.6057 13.85C17.2777 14.2793 17.9217 14.6153 18.5377 14.858C18.5657 15.0073 18.5797 15.1567 18.5797 15.306C18.5797 15.7447 18.449 16.1227 18.1877 16.44C17.9357 16.748 17.5717 16.9347 17.0957 17C16.4144 16.5987 15.831 16.1367 15.3457 15.614C14.8604 15.082 14.3657 14.4193 13.8617 13.626C13.7777 14.8207 13.6937 15.684 13.6097 16.216C13.5257 16.7387 13.3904 17 13.2037 17C12.989 17 12.7324 16.9253 12.4337 16.776C12.1444 16.6173 11.8877 16.4307 11.6637 16.216C11.449 16.0013 11.3417 15.824 11.3417 15.684C11.3324 15.5347 11.3744 15.222 11.4677 14.746C11.5704 14.2607 11.6357 13.948 11.6637 13.808C11.701 13.6213 11.771 13.2807 11.8737 12.786C11.9764 12.282 12.0604 11.8153 12.1257 11.386L12.2377 10.728C12.415 9.68267 12.5784 8.83333 12.7277 8.18C12.8864 7.52667 13.045 7.2 13.2037 7.2C13.381 7.2 13.619 7.27933 13.9177 7.438C14.2257 7.59667 14.4917 7.78333 14.7157 7.998C14.949 8.21267 15.0657 8.39933 15.0657 8.558C15.0657 8.66067 14.9817 8.98267 14.8137 9.524C14.6457 10.0653 14.487 10.532 14.3377 10.924C14.8977 10.448 15.3924 9.93933 15.8217 9.398C16.2604 8.85667 16.7644 8.17533 17.3337 7.354Z" fill="white"/>
</svg>
