<svg width="20" height="20" viewBox="0 0 28 28" fill="current" xmlns="http://www.w3.org/2000/svg">
<path d="M14 2.33334C20.4283 2.33334 25.6667 7.04668 25.6667 12.8333C25.6667 16.695 22.5283 19.8333 18.6667 19.8333H16.6017C16.275 19.8333 16.0183 20.09 16.0183 20.4167C16.0183 20.5567 16.0767 20.685 16.17 20.8017C16.6483 21.35 16.9167 22.0383 16.9167 22.75C16.9167 24.36 15.61 25.6667 14 25.6667C7.57167 25.6667 2.33333 20.4283 2.33333 14C2.33333 7.57168 7.57167 2.33334 14 2.33334ZM13.995 4.33001C8.66717 4.33001 4.33 8.66718 4.33 13.995C4.33 19.3228 8.66717 23.66 13.995 23.66C14.3333 23.66 14.5991 23.3942 14.5991 23.0559C14.5991 22.8626 14.5024 22.7177 14.4299 22.6331C13.9346 22.0774 13.6688 21.3646 13.6688 20.6397C13.6688 18.9725 15.0219 17.6194 16.6891 17.6194H18.8275C21.4975 17.6194 23.66 15.4568 23.66 12.7869C23.66 8.12352 19.3228 4.33001 13.995 4.33001ZM7.58333 11.6667C8.54983 11.6667 9.33333 12.4502 9.33333 13.4167C9.33333 14.3832 8.54983 15.1667 7.58333 15.1667C6.61684 15.1667 5.83333 14.3832 5.83333 13.4167C5.83333 12.4502 6.61684 11.6667 7.58333 11.6667ZM20.4167 11.6667C21.3832 11.6667 22.1667 12.4502 22.1667 13.4167C22.1667 14.3832 21.3832 15.1667 20.4167 15.1667C19.4502 15.1667 18.6667 14.3832 18.6667 13.4167C18.6667 12.4502 19.4502 11.6667 20.4167 11.6667ZM11.0833 7.00001C12.0498 7.00001 12.8333 7.78351 12.8333 8.75001C12.8333 9.71651 12.0498 10.5 11.0833 10.5C10.1168 10.5 9.33333 9.71651 9.33333 8.75001C9.33333 7.78351 10.1168 7.00001 11.0833 7.00001ZM16.9167 7.00001C17.8832 7.00001 18.6667 7.78351 18.6667 8.75001C18.6667 9.71651 17.8832 10.5 16.9167 10.5C15.9502 10.5 15.1667 9.71651 15.1667 8.75001C15.1667 7.78351 15.9502 7.00001 16.9167 7.00001Z" fill="current"/>
</svg>
