<svg width="20" height="20" viewBox="0 0 20 20" fill="current" xmlns="http://www.w3.org/2000/svg">
<path fill-rule="evenodd" clip-rule="evenodd" d="M12.5 8.5C11.837 8.5 11.2011 8.23661 10.7322 7.76777C10.2634 7.29893 10 6.66304 10 6C10 5.33696 10.2634 4.70107 10.7322 4.23223C11.2011 3.76339 11.837 3.5 12.5 3.5C13.163 3.5 13.7989 3.76339 14.2678 4.23223C14.7366 4.70107 15 5.33696 15 6C15 6.66304 14.7366 7.29893 14.2678 7.76777C13.7989 8.23661 13.163 8.5 12.5 8.5ZM8.5 6C8.5 4.93913 8.92143 3.92172 9.67157 3.17157C10.4217 2.42143 11.4391 2 12.5 2C13.5609 2 14.5783 2.42143 15.3284 3.17157C16.0786 3.92172 16.5 4.93913 16.5 6C16.5 7.06087 16.0786 8.07828 15.3284 8.82843C14.5783 9.57857 13.5609 10 12.5 10C11.4391 10 10.4217 9.57857 9.67157 8.82843C8.92143 8.07828 8.5 7.06087 8.5 6ZM4.5 7.75H3H1C0.801088 7.75 0.610322 7.82902 0.46967 7.96967C0.329018 8.11032 0.25 8.30109 0.25 8.5C0.25 8.69891 0.329018 8.88968 0.46967 9.03033C0.610322 9.17098 0.801088 9.25 1 9.25H3H3.67199H4.5H6.5C6.69891 9.25 6.88968 9.17098 7.03033 9.03033C7.17098 8.88968 7.25 8.69891 7.25 8.5C7.25 8.30109 7.17098 8.11032 7.03033 7.96967C6.88968 7.82902 6.69891 7.75 6.5 7.75H4.5ZM8.66 12.98C9.52 12.52 10.85 12.25 12.5 12.25C14.15 12.25 15.48 12.52 16.35 12.98C17.14 13.4 17.5 13.94 17.5 14.68C17.5059 14.7825 17.4888 14.885 17.45 14.98C17.4268 15.0274 17.3925 15.0686 17.35 15.1C17.28 15.16 17.1 15.25 16.75 15.25H8.25C7.9 15.25 7.72 15.15 7.65 15.09C7.60754 15.0586 7.57325 15.0174 7.55 14.97C7.51407 14.8812 7.49704 14.7858 7.5 14.69C7.5 13.94 7.86 13.39 8.66 12.98ZM12.5 10.75C10.73 10.75 9.12 11.03 7.95 11.65C6.78 12.27 6 13.26 6 14.7C6 15.39 6.27 15.92 6.69 16.26C7.09 16.6 7.64 16.76 8.24 16.76H16.76C17.36 16.76 17.9 16.6 18.31 16.26C18.73 15.92 19 15.39 19 14.7C19 13.27 18.22 12.28 17.05 11.66C15.6253 11.0061 14.0664 10.6978 12.5 10.76V10.75Z" fill="current"/>
</svg>
